<?xml version="1.0" encoding="UTF-8" standalone="no"?>
<!-- Created with Inkscape (http://www.inkscape.org/) -->

<svg
   version="1.1"
   id="svg1"
   width="698.33331"
   height="171"
   viewBox="0 0 698.33331 171"
   sodipodi:docname="s79a3UWDtDNRD3j.eps"
   xmlns:inkscape="http://www.inkscape.org/namespaces/inkscape"
   xmlns:sodipodi="http://sodipodi.sourceforge.net/DTD/sodipodi-0.dtd"
   xmlns="http://www.w3.org/2000/svg"
   xmlns:svg="http://www.w3.org/2000/svg">
  <defs
     id="defs1" />
  <sodipodi:namedview
     id="namedview1"
     pagecolor="#ffffff"
     bordercolor="#000000"
     borderopacity="0.25"
     inkscape:showpageshadow="2"
     inkscape:pageopacity="0.0"
     inkscape:pagecheckerboard="0"
     inkscape:deskcolor="#d1d1d1">
    <inkscape:page
       x="0"
       y="0"
       inkscape:label="1"
       id="page1"
       width="698.33331"
       height="171"
       margin="0"
       bleed="0" />
  </sodipodi:namedview>
  <g
     id="g1"
     inkscape:groupmode="layer"
     inkscape:label="1">
    <g
       id="group-R5">
      <path
         id="path2"
         d="m 1702.29,704.273 c 10.94,-0.652 27.71,-1.293 39.35,-1.293 42.53,0 79.34,3.243 108.35,32.243 39.35,39.347 41.94,109.05 41.94,131.593 0,65.836 -22.59,126.438 -85.11,143.894 -20.67,5.77 -47.12,9.04 -104.53,6.47 z m -101.26,388.367 154.14,-0.66 c 25.82,0 104.48,-0.62 160.6,-41.92 58.74,-43.23 79.33,-116.798 79.33,-183.244 0,-143.191 -76.71,-218.039 -165.12,-234.16 -17.41,-3.242 -36.71,-5.129 -83.82,-5.129 h -145.13 v 465.113"
         style="fill:#ffffff;fill-opacity:1;fill-rule:nonzero;stroke:none"
         transform="matrix(0.13333333,0,0,-0.13333333,0,171)" />
      <path
         id="path3"
         d="m 2138.31,728.156 c 0,-21.953 14.83,-46.429 46.43,-46.429 17.49,0 31.6,8.359 40.65,18.703 16.8,20.644 18.12,45.777 18.12,80.605 -61.31,5.133 -105.2,-14.219 -105.2,-52.879 m 117.37,-100.648 c -3.18,20 -3.18,34.785 -3.18,44.562 -36.16,-52.285 -79.36,-52.285 -97.44,-52.285 -47.11,0 -68.41,13.508 -81.3,25.774 -19.35,19.363 -28.39,45.859 -28.39,71.636 0,25.743 9.04,73.524 68.99,101.258 40.09,18.055 97.54,18.055 129.15,18.055 0,21.281 -0.67,31.629 -4.55,43.215 -8.4,23.957 -33.58,27.109 -42.62,27.109 -13.49,0 -27.68,-5.816 -36.08,-18.078 -7.12,-10.965 -7.12,-21.301 -7.12,-29.02 h -93.55 c 0.68,17.403 2.61,52.274 36.79,76.797 29.64,21.278 67.72,26.485 98.66,26.485 27.13,0 83.88,-4.551 116.14,-41.969 21.95,-26.524 22.64,-65.192 22.64,-79.992 l 0.6,-130.969 c 0,-27.723 1.9,-55.516 7.72,-82.578 h -86.46"
         style="fill:#ffffff;fill-opacity:1;fill-rule:nonzero;stroke:none"
         transform="matrix(0.13333333,0,0,-0.13333333,0,171)" />
      <path
         id="path4"
         d="m 2416.98,895.203 c 0,1.336 0,36.762 -1.95,59.395 h 91.59 l 2.59,-49.032 c 9.01,14.84 34.79,56.75 105.77,56.75 63.89,0 90.95,-38.683 99.34,-61.328 7.11,-20 9.05,-36.734 9.05,-97.363 V 627.551 h -97.4 v 202.492 c 0,13.527 0,25.172 -5.18,35.504 -7.08,14.219 -21.92,27.75 -46.45,27.75 -20.65,0 -39.36,-9.652 -49.64,-25.16 -5.79,-8.403 -11.65,-24.567 -11.65,-49.684 V 627.551 h -96.07 v 267.652"
         style="fill:#ffffff;fill-opacity:1;fill-rule:nonzero;stroke:none"
         transform="matrix(0.13333333,0,0,-0.13333333,0,171)" />
      <path
         id="path5"
         d="m 2879.33,728.156 c 0,-21.953 14.74,-46.429 46.42,-46.429 17.47,0 31.58,8.359 40.64,18.703 16.8,20.644 18.1,45.777 18.1,80.605 -61.3,5.133 -105.16,-14.219 -105.16,-52.879 m 117.36,-100.648 c -3.21,20 -3.21,34.785 -3.21,44.562 -36.15,-52.285 -79.34,-52.285 -97.43,-52.285 -47.11,0 -68.39,13.508 -81.29,25.774 -19.35,19.363 -28.4,45.859 -28.4,71.636 0,25.743 9.05,73.524 69,101.258 40.04,18.055 97.52,18.055 129.13,18.055 0,21.281 -0.66,31.629 -4.55,43.215 -8.4,23.957 -33.55,27.109 -42.61,27.109 -13.49,0 -27.68,-5.816 -36.11,-18.078 -7.15,-10.965 -7.15,-21.301 -7.15,-29.02 h -93.5 c 0.7,17.403 2.58,52.274 36.74,76.797 29.69,21.278 67.78,26.485 98.73,26.485 27.15,0 83.86,-4.551 116.15,-41.969 21.93,-26.524 22.62,-65.192 22.62,-79.992 l 0.58,-130.969 c 0,-27.723 1.94,-55.516 7.75,-82.578 h -86.45"
         style="fill:#ffffff;fill-opacity:1;fill-rule:nonzero;stroke:none"
         transform="matrix(0.13333333,0,0,-0.13333333,0,171)" />
      <path
         id="path6"
         d="m 3136.58,834.59 h 160.03 v -72.922 h -160.03 v 72.922"
         style="fill:#ffffff;fill-opacity:1;fill-rule:nonzero;stroke:none"
         transform="matrix(0.13333333,0,0,-0.13333333,0,171)" />
      <path
         id="path7"
         d="m 3367.55,1093.27 h 300.63 v -74.86 H 3467.52 V 903.629 h 187.15 V 826.191 H 3467.52 V 627.504 h -99.97 v 465.766"
         style="fill:#ffffff;fill-opacity:1;fill-rule:nonzero;stroke:none"
         transform="matrix(0.13333333,0,0,-0.13333333,0,171)" />
      <path
         id="path8"
         d="m 3768.18,728.156 c 0,-21.953 14.75,-46.429 46.41,-46.429 17.47,0 31.59,8.359 40.65,18.703 16.81,20.644 18.13,45.777 18.13,80.605 -61.32,5.133 -105.19,-14.219 -105.19,-52.879 m 117.37,-100.648 c -3.2,20 -3.2,34.785 -3.2,44.562 -36.17,-52.285 -79.34,-52.285 -97.46,-52.285 -47.11,0 -68.38,13.508 -81.27,25.774 -19.34,19.363 -28.39,45.859 -28.39,71.636 0,25.743 9.05,73.524 68.99,101.258 40.07,18.055 97.51,18.055 129.15,18.055 0,21.281 -0.67,31.629 -4.56,43.215 -8.42,23.957 -33.56,27.109 -42.63,27.109 -13.49,0 -27.66,-5.816 -36.11,-18.078 -7.14,-10.965 -7.14,-21.301 -7.14,-29.02 h -93.49 c 0.69,17.403 2.54,52.274 36.73,76.797 29.68,21.278 67.77,26.485 98.73,26.485 27.14,0 83.87,-4.551 116.15,-41.969 21.93,-26.524 22.61,-65.192 22.61,-79.992 l 0.58,-130.969 c 0,-27.723 1.95,-55.516 7.75,-82.578 h -86.44"
         style="fill:#ffffff;fill-opacity:1;fill-rule:nonzero;stroke:none"
         transform="matrix(0.13333333,0,0,-0.13333333,0,171)" />
      <path
         id="path9"
         d="m 4045.53,873.281 c 0,15.442 -2.62,62.61 -4.55,81.328 h 89.71 l 1.91,-62.66 c 12.24,27.789 33.57,67.168 110.94,63.301 v -85.848 c -96.75,9.012 -102.57,-40.64 -102.57,-81.285 V 627.52 h -95.44 v 245.761"
         style="fill:#ffffff;fill-opacity:1;fill-rule:nonzero;stroke:none"
         transform="matrix(0.13333333,0,0,-0.13333333,0,171)" />
      <path
         id="path10"
         d="m 4451.92,893.965 c -70.31,0 -70.31,-80.031 -70.31,-100.672 0,-74.18 31.62,-109.648 74.86,-109.648 65.74,0 65.74,81.937 65.74,98.687 0,25.785 -1.29,111.633 -70.29,111.633 m -161.99,198.655 h 95.55 V 913.957 c 32.22,42.574 75.45,43.91 92.19,43.91 79.41,0 141.95,-62.676 141.95,-172.293 0,-121.929 -70.96,-164.508 -136.12,-164.508 -16.77,0 -68.32,1.293 -98.02,52.243 -0.65,-10.305 -1.34,-25.832 -3.25,-45.774 h -92.3 v 465.085"
         style="fill:#ffffff;fill-opacity:1;fill-rule:nonzero;stroke:none"
         transform="matrix(0.13333333,0,0,-0.13333333,0,171)" />
      <path
         id="path11"
         d="m 4882.14,826.18 c 0,14.797 -1.31,72.968 -56.74,72.968 -41.96,0 -59.42,-34.898 -61.29,-72.968 z m -121.25,-59.95 c 0,-21.335 0,-87.074 66.37,-87.074 23.91,0 47.8,8.973 56.81,45.094 h 87.07 c -1.3,-15.434 -4.49,-43.227 -31,-70.937 -23.79,-25.133 -66.41,-38.051 -114.08,-38.051 -27.79,0 -80.65,5.156 -114.87,40.668 -29.71,30.949 -41.98,74.789 -41.98,127.031 0,52.887 12.94,116.187 67.76,154.242 25.17,16.719 56.16,27.067 91.59,27.067 46.5,0 101.92,-18.067 131.58,-78.743 21.95,-44.55 20.68,-92.23 19.36,-119.297 h -218.61"
         style="fill:#ffffff;fill-opacity:1;fill-rule:nonzero;stroke:none"
         transform="matrix(0.13333333,0,0,-0.13333333,0,171)" />
      <path
         id="path12"
         d="m 5039.52,873.281 c 0,15.442 -2.65,62.61 -4.55,81.328 h 89.72 l 1.89,-62.66 c 12.23,27.789 33.57,67.168 110.94,63.301 v -85.848 c -96.76,9.012 -102.58,-40.64 -102.58,-81.285 V 627.52 h -95.42 v 245.761"
         style="fill:#ffffff;fill-opacity:1;fill-rule:nonzero;stroke:none"
         transform="matrix(0.13333333,0,0,-0.13333333,0,171)" />
      <path
         id="path13"
         d="m 1804.94,379.738 c -1.79,11.016 -7.54,55.371 -69.11,55.371 -77.09,0 -90.85,-78.855 -90.85,-131.992 0,-60.277 17.3,-125.336 90.37,-125.336 19.46,0 38.1,4.86 51.86,19.078 11.51,12.379 14.2,26.09 15.49,33.582 h 48.69 c -6.58,-62.902 -64.65,-89.031 -119.51,-89.031 -112.53,0 -134.25,99.25 -134.25,161.238 0,67.325 26.14,167.93 139.91,167.93 45.25,0 109,-18.254 114.78,-90.84 h -47.38"
         style="fill:#ffffff;fill-opacity:1;fill-rule:nonzero;stroke:none"
         transform="matrix(0.13333333,0,0,-0.13333333,0,171)" />
      <path
         id="path14"
         d="m 2016.6,255.691 c -16.77,0 -80.14,0 -80.14,-45.152 0,-14.187 8.8,-38.527 46,-38.527 21.29,0 37.19,8.398 47.4,23.929 9.36,15.039 9.76,27.457 10.68,58.438 -7.55,0.902 -13.74,1.312 -23.94,1.312 m 28.79,-109.339 c -3.08,11.007 -4.02,21.718 -4.02,33.179 -19.87,-36.769 -50.01,-40.293 -68.69,-40.293 -50.91,0 -78.29,28.832 -78.29,65.563 0,17.687 6.17,45.98 38.92,65.129 23.94,13.246 59.34,14.574 77.11,14.574 10.61,0 17.2,-0.43 30.12,-1.328 0,27.453 0,39.402 -8.01,49.148 -8.43,11.106 -26.56,14.649 -38.54,14.649 -42.05,0 -44.23,-28.797 -44.74,-37.664 h -41.63 c 1.39,11.484 2.71,27.039 15.56,42.078 16.8,18.593 48.22,23.957 71.7,23.957 32.34,0 66.93,-10.215 78.84,-32.832 7.08,-13.235 7.58,-23.938 7.58,-34.141 l -1.83,-106.281 c 0,-3.508 0.49,-33.192 3.55,-55.738 h -37.63"
         style="fill:#ffffff;fill-opacity:1;fill-rule:nonzero;stroke:none"
         transform="matrix(0.13333333,0,0,-0.13333333,0,171)" />
      <path
         id="path15"
         d="m 2152.06,342.969 -0.52,25.715 h 41.68 l 0.47,-35.911 c 4.82,9.309 20.8,40.364 71.31,40.364 19.93,0 80.63,-7.547 80.63,-75.762 V 146.332 h -42.56 v 141.266 c 0,14.648 -1.77,27.902 -11.97,38.097 -10.59,10.203 -25.26,15.078 -39.37,15.078 -30.14,0 -58.04,-21.757 -58.04,-66.453 V 146.332 h -41.63 v 196.637"
         style="fill:#ffffff;fill-opacity:1;fill-rule:nonzero;stroke:none"
         transform="matrix(0.13333333,0,0,-0.13333333,0,171)" />
      <path
         id="path16"
         d="m 2544.83,297.344 c -0.9,10.207 -4.03,46.476 -44.23,46.476 -57.63,0 -57.63,-66.879 -57.63,-83.691 0,-45.609 11.02,-88.141 55.38,-88.141 35.47,0 47.37,26.602 48.2,48.282 h 42.14 c -2.68,-43.411 -35.04,-79.692 -89.96,-79.692 -15.05,0 -49.55,3.063 -73.04,28.781 -13.27,15.473 -26.59,38.981 -26.59,85.032 0,92.582 56.73,120.043 101,120.043 14.57,0 47.76,-3.164 68.16,-27.461 16.43,-19.102 17.75,-37.207 18.65,-49.629 h -42.08"
         style="fill:#ffffff;fill-opacity:1;fill-rule:nonzero;stroke:none"
         transform="matrix(0.13333333,0,0,-0.13333333,0,171)" />
      <path
         id="path17"
         d="m 2784.42,279.199 c 0.47,21.27 -3.54,65.52 -54.96,65.52 -26.96,0 -59.8,-16.36 -60.67,-65.52 z m -117.35,-29.23 c -0.97,-46.047 18.13,-80.18 63.73,-80.18 27.04,0 48.67,14.172 52.28,46.051 h 41.61 c -1.3,-11.008 -3.06,-29.199 -19,-46.469 -9.75,-11.051 -32,-29.652 -76.61,-29.652 -69.97,0 -103.18,43.41 -103.18,113.781 0,43.824 8.83,80.133 43.76,104.52 21.34,15.07 47.89,16.445 60.7,16.445 99.65,0 97.46,-88.184 96.56,-124.496 h -159.85"
         style="fill:#ffffff;fill-opacity:1;fill-rule:nonzero;stroke:none"
         transform="matrix(0.13333333,0,0,-0.13333333,0,171)" />
      <path
         id="path18"
         d="m 2887.1,323.477 c 0,15.05 -0.88,30.507 -2.22,45.207 h 42.08 l 0.87,-43.02 c 7.96,31.016 34.57,41.223 53.17,43.906 12.38,1.731 21.74,1.34 28.83,0.832 v -40.714 l -8.02,1.789 c -3.12,0.437 -7.11,0.437 -11.95,0.437 -49.15,0 -60.68,-29.226 -60.68,-67.293 V 146.332 h -42.08 v 177.145"
         style="fill:#ffffff;fill-opacity:1;fill-rule:nonzero;stroke:none"
         transform="matrix(0.13333333,0,0,-0.13333333,0,171)" />
      <path
         id="path19"
         d="m 3171.62,466.074 h 44.23 V 146.359 h -44.23 v 319.715"
         style="fill:#ffffff;fill-opacity:1;fill-rule:nonzero;stroke:none"
         transform="matrix(0.13333333,0,0,-0.13333333,0,171)" />
      <path
         id="path20"
         d="m 3298.28,342.969 -0.51,25.715 h 41.67 l 0.43,-35.911 c 4.87,9.309 20.84,40.364 71.35,40.364 19.91,0 80.64,-7.547 80.64,-75.762 V 146.332 h -42.59 v 141.266 c 0,14.648 -1.75,27.902 -11.96,38.097 -10.59,10.203 -25.26,15.078 -39.37,15.078 -30.12,0 -58.07,-21.757 -58.07,-66.453 V 146.332 h -41.59 v 196.637"
         style="fill:#ffffff;fill-opacity:1;fill-rule:nonzero;stroke:none"
         transform="matrix(0.13333333,0,0,-0.13333333,0,171)" />
      <path
         id="path21"
         d="m 3593.63,212.309 c -0.49,-16.77 8.44,-40.278 48.73,-40.278 17.23,0 30.07,3.078 38.91,14.129 4.52,5.75 7.12,13.301 7.12,20.84 0,21.75 -15.45,25.711 -48.65,33.281 -46.6,10.52 -85.53,19.848 -85.53,66.391 0,40.711 35.41,67.351 86.86,67.351 27.87,0 66.84,-8.007 80.15,-34.628 5.72,-12.383 5.72,-23.008 5.72,-32.274 h -42.46 c 1.31,33.652 -27.97,36.27 -43.02,36.27 -6.17,0 -45.13,0 -45.13,-31.844 0,-20.434 19.92,-25.277 31.38,-28.383 61.58,-14.594 74.9,-18.195 88.15,-30.574 12.41,-11.5 16.83,-26.988 16.83,-41.168 0,-24.793 -13.67,-46.051 -30.08,-56.231 -19.49,-11.972 -43.02,-15.07 -66.08,-15.07 -45.11,0 -87.12,18.57 -86.81,72.188 h 43.91"
         style="fill:#ffffff;fill-opacity:1;fill-rule:nonzero;stroke:none"
         transform="matrix(0.13333333,0,0,-0.13333333,0,171)" />
      <path
         id="path22"
         d="m 3759.28,369.551 h 39.39 v 46.476 l 41.18,13.34 v -59.816 h 49.64 v -30.504 h -49.64 V 205.66 c 0,-11.07 0,-29.68 29.73,-29.68 8.39,0 16.36,1.36 19.91,2.211 v -32.339 c -7.49,-1.383 -19.49,-2.614 -34.56,-2.614 -38.02,0 -56.26,11.114 -56.26,47.34 v 148.469 h -39.39 v 30.504"
         style="fill:#ffffff;fill-opacity:1;fill-rule:nonzero;stroke:none"
         transform="matrix(0.13333333,0,0,-0.13333333,0,171)" />
      <path
         id="path23"
         d="m 3948.86,368.723 h 41.65 V 146.332 h -41.65 z m -4.41,96.504 h 50.08 v -45.594 h -50.08 v 45.594"
         style="fill:#ffffff;fill-opacity:1;fill-rule:nonzero;stroke:none"
         transform="matrix(0.13333333,0,0,-0.13333333,0,171)" />
      <path
         id="path24"
         d="m 4039.64,369.551 h 39.42 v 46.476 l 41.22,13.34 v -59.816 h 49.6 v -30.504 h -49.6 V 205.66 c 0,-11.07 0,-29.68 29.64,-29.68 8.46,0 16.44,1.36 19.96,2.211 v -32.339 c -7.52,-1.383 -19.44,-2.614 -34.57,-2.614 -38.04,0 -56.25,11.114 -56.25,47.34 v 148.469 h -39.42 v 30.504"
         style="fill:#ffffff;fill-opacity:1;fill-rule:nonzero;stroke:none"
         transform="matrix(0.13333333,0,0,-0.13333333,0,171)" />
      <path
         id="path25"
         d="M 4261.52,368.672 V 225.609 c 0,-21.687 4.9,-49.14 47.43,-49.14 20.76,0 40.22,7.019 52.24,24.761 9.3,13.231 9.3,30.551 9.3,41.59 v 125.852 h 42.95 V 187.93 c 0,-4.442 0.92,-29.219 1.32,-41.649 h -43.4 l -0.87,38.168 c -7.95,-15.551 -23.05,-40.359 -70.87,-40.359 -54.88,0 -80.6,31.469 -80.6,75.308 v 149.274 h 42.5"
         style="fill:#ffffff;fill-opacity:1;fill-rule:nonzero;stroke:none"
         transform="matrix(0.13333333,0,0,-0.13333333,0,171)" />
      <path
         id="path26"
         d="m 4454.58,369.551 h 39.39 v 46.476 l 41.17,13.34 v -59.816 h 49.66 v -30.504 h -49.66 V 205.66 c 0,-11.07 0,-29.68 29.69,-29.68 8.45,0 16.4,1.36 19.97,2.211 v -32.339 c -7.51,-1.383 -19.51,-2.614 -34.57,-2.614 -38.14,0 -56.26,11.114 -56.26,47.34 v 148.469 h -39.39 v 30.504"
         style="fill:#ffffff;fill-opacity:1;fill-rule:nonzero;stroke:none"
         transform="matrix(0.13333333,0,0,-0.13333333,0,171)" />
      <path
         id="path27"
         d="m 4775.62,279.199 c 0.41,21.27 -3.53,65.52 -54.93,65.52 -27.06,0 -59.87,-16.36 -60.69,-65.52 z m -117.38,-29.23 c -0.91,-46.047 18.11,-80.18 63.73,-80.18 27.07,0 48.72,14.172 52.31,46.051 h 41.62 c -1.29,-11.008 -3.09,-29.199 -19.07,-46.469 -9.69,-11.051 -31.84,-29.652 -76.58,-29.652 -70,0 -103.22,43.41 -103.22,113.781 0,43.824 8.83,80.133 43.79,104.52 21.31,15.07 47.89,16.445 60.76,16.445 99.64,0 97.44,-88.184 96.54,-124.496 h -159.88"
         style="fill:#ffffff;fill-opacity:1;fill-rule:nonzero;stroke:none"
         transform="matrix(0.13333333,0,0,-0.13333333,0,171)" />
      <path
         id="path28"
         d="M 775.789,79.5703 V 506.785 H 1202.96 C 1152.45,296.008 986.535,130.051 775.789,79.5703 M 166.215,312.578 c 109.871,10.637 215.355,41.36 312.375,90.305 v 347.25 C 372.383,655.129 232.711,596.902 79.3828,596.902 c -4.707,0 -9.3125,0.493 -14.0898,0.61 -1.0391,14.496 -2.1328,29.011 -2.1328,43.726 0,318.832 259.3128,578.152 578.0858,578.152 12.613,0 24.938,-1.12 37.305,-1.91 0.238,-6.83 1.019,-13.54 1.019,-20.36 0,-150.43 -55.965,-287.729 -147.715,-393.167 h 344.793 c 48.575,98.301 78.582,205.117 88.028,316.227 109.994,-74.46 192.724,-185.969 230.964,-316.227 2.73,-9.226 4.99,-18.625 7.25,-28.004 2.26,-9.297 4.39,-18.668 6.25,-28.078 H 534.699 V 73.3906 c -9.484,1.7578 -18.777,3.9688 -28.09,6.211 -9.351,2.2578 -18.808,4.5586 -28.019,7.1484 C 350.379,124.469 240.645,205.27 166.215,312.578 M 641.246,1282.5 C 287.688,1282.5 0,994.773 0,641.238 0,287.656 287.688,0 641.246,0 994.895,0 1282.5,287.656 1282.5,641.238 1282.5,994.773 994.895,1282.5 641.246,1282.5"
         style="fill:#ffffff;fill-opacity:1;fill-rule:nonzero;stroke:none"
         transform="matrix(0.13333333,0,0,-0.13333333,0,171)" />
    </g>
  </g>
</svg>
